<?xml version="1.0" standalone="no"?>
<!DOCTYPE svg PUBLIC "-//W3C//DTD SVG 20010904//EN"
 "http://www.w3.org/TR/2001/REC-SVG-20010904/DTD/svg10.dtd">
<svg version="1.0" xmlns="http://www.w3.org/2000/svg"
 width="700.000000pt" height="700.000000pt" viewBox="0 0 700.000000 700.000000"
 preserveAspectRatio="xMidYMid meet">
<metadata>
Created by potrace 1.14, written by Peter Selinger 2001-2017
</metadata>
<g transform="translate(0.000000,700.000000) scale(0.100000,-0.100000)"
fill="#000000" stroke="none">
<path d="M4035 6993 c-253 -57 -239 -54 -412 -107 -332 -104 -726 -282 -1047
-475 -66 -39 -121 -71 -123 -71 -2 0 -9 -5 -16 -10 -7 -6 -70 -49 -142 -97
-111 -74 -336 -236 -371 -268 -6 -5 -29 -23 -50 -40 -108 -84 -275 -236 -389
-356 -460 -481 -723 -955 -810 -1457 -63 -368 -27 -594 134 -838 154 -233 366
-400 649 -509 91 -35 243 -78 317 -89 67 -10 99 -16 130 -22 17 -3 128 -8 248
-10 l217 -5 1 28 c5 100 -9 262 -32 364 -6 26 -12 53 -13 60 -10 48 -56 193
-93 291 -21 56 -81 97 -188 126 -119 33 -243 88 -316 141 -189 137 -314 316
-355 506 -23 108 -28 367 -9 455 72 334 253 595 645 931 299 256 659 445 1056
554 67 18 135 36 150 39 16 2 76 14 134 25 125 24 156 29 235 37 33 3 71 7 85
10 75 12 266 19 505 19 241 -1 281 -3 370 -23 299 -66 544 -196 713 -376 100
-107 170 -268 190 -440 8 -66 8 -266 -1 -341 -10 -85 -128 -348 -222 -495
-147 -230 -294 -372 -585 -567 -400 -266 -847 -443 -1425 -563 -82 -17 -158
-33 -168 -36 -18 -6 -19 -20 -15 -252 4 -191 8 -256 20 -287 l15 -40 84 2
c393 9 943 254 1484 661 481 363 843 730 1113 1132 86 130 112 173 179 305 83
162 165 400 188 545 3 19 8 42 10 50 4 14 9 44 21 145 12 98 11 289 -3 353
-46 227 -151 411 -337 597 -165 164 -429 308 -699 380 l-92 25 -480 -1 c-264
-1 -489 -3 -500 -6z"/>
<path d="M3457 5764 c-1 -1 -29 -5 -62 -8 -198 -22 -406 -114 -575 -255 -71
-59 -68 -56 -123 -124 -233 -287 -362 -636 -404 -1098 -19 -199 -9 -666 18
-854 5 -38 12 -88 15 -110 6 -49 69 -359 88 -435 53 -210 129 -445 207 -638
98 -242 264 -567 370 -724 22 -31 39 -59 39 -62 0 -3 7 -14 14 -23 8 -10 40
-54 71 -97 102 -144 208 -269 335 -397 267 -268 508 -473 708 -602 160 -104
417 -219 559 -252 170 -39 246 -49 369 -48 145 1 287 32 404 89 27 13 53 24
56 24 21 0 201 138 273 209 106 105 124 127 189 223 154 228 278 556 307 813
4 33 9 71 11 85 18 128 24 491 10 654 -8 88 -9 104 -21 201 -8 64 -44 275 -51
297 -3 9 -7 27 -9 40 -32 170 -135 504 -223 723 -101 251 -248 546 -370 740
-18 28 -36 60 -42 73 -5 12 -15 22 -23 22 -7 0 -54 -43 -105 -95 -128 -134
-142 -194 -83 -360 99 -274 161 -478 177 -580 3 -22 7 -42 9 -45 2 -3 6 -24 9
-46 4 -22 8 -50 11 -63 2 -13 7 -49 11 -80 3 -31 8 -65 10 -76 29 -149 21
-748 -11 -915 -3 -14 -8 -42 -11 -64 -5 -36 -8 -48 -18 -94 -115 -502 -383
-862 -732 -982 -40 -14 -85 -18 -205 -18 -242 -1 -391 34 -600 138 -222 112
-438 321 -613 593 -66 102 -152 264 -190 357 -15 36 -34 79 -41 96 -32 70 -99
269 -145 430 -58 203 -81 310 -96 444 -3 25 -7 56 -10 70 -25 145 -25 590 0
770 2 14 7 45 10 70 5 37 28 146 51 245 5 22 67 211 87 265 7 19 48 107 93
195 74 149 86 166 165 246 125 126 252 202 420 253 194 58 266 58 480 0 192
-53 369 -154 534 -306 105 -97 150 -131 230 -174 l60 -32 26 41 c37 60 74 134
105 208 l26 64 -183 180 c-181 177 -330 311 -458 411 -239 188 -606 341 -905
380 -47 6 -243 12 -248 8z"/>
</g>
</svg>
